<?xml version="1.0" encoding="utf-8"?>
<!-- Generator: Adobe Illustrator 27.5.0, SVG Export Plug-In . SVG Version: 6.00 Build 0)  -->
<svg version="1.1" xmlns="http://www.w3.org/2000/svg" xmlns:xlink="http://www.w3.org/1999/xlink" x="0px" y="0px"
	 viewBox="0 0 3710 3710" style="enable-background:new 0 0 3710 3710;" xml:space="preserve">
<g id="Background">
	<g>
		<g>
			<rect style="fill:#FFFFFF;" width="3710" height="3710"/>
		</g>
	</g>
</g>
<g id="Illustration">
	<g>
		<path style="fill:#F4F7FA;" d="M2924.951,2863.078c-73.35,75.607-138.981,120.051-189.23,153.603
			c-490.073,327.226-1050.28,232.912-1223.482,200.675c-279.44-52.01-515.327-88.7-717.995-271.803
			c-460.523-416.065-438.125-1284.008-86.229-1821.66c41.725-63.75,393.089-584.58,954.508-657.969
			c13.731-1.795,23.977-2.817,32.951-3.767c86.85-9.195,625.044-57.728,1063.888,309.936
			c62.818,52.629,163.911,147.558,257.657,292.341C3359.796,1593.826,3360.881,2413.737,2924.951,2863.078z"/>
		<g>
			<g>
				<defs>
					<path id="SVGID_1_" d="M2556.657,1982.844c22.974,4.88,185.093,39.318,290.302-70.953
						c12.228-12.816,70.462-73.852,70.796-157.23c0.345-86.34-61.684-124.774-39.38-174.234
						c19.866-44.053,74.705-26.048,118.763-77.968c44.735-52.716,57.248-152.645,7.175-199.157
						c-34.479-32.026-93.887-34.318-137.059-14.911c-74.659,33.56-56.49,112.108-129.119,182.041
						c-82.839,79.763-153.814,23.163-241.24,94.634c-101.209,82.741-141.317,269.146-65.586,358.64
						C2464.851,1963.342,2512.166,1973.394,2556.657,1982.844z"/>
				</defs>
				
					<linearGradient id="SVGID_00000169545981619879698040000001358440715020487063_" gradientUnits="userSpaceOnUse" x1="2550.571" y1="1373.3979" x2="2705.4121" y2="1594.5997">
					<stop  offset="0" style="stop-color:#FF9085"/>
					<stop  offset="1" style="stop-color:#FB6FBB"/>
				</linearGradient>
				
					<use xlink:href="#SVGID_1_"  style="overflow:visible;fill:url(#SVGID_00000169545981619879698040000001358440715020487063_);"/>
				<clipPath id="SVGID_00000031202263144106476690000012869085707970586811_">
					<use xlink:href="#SVGID_1_"  style="overflow:visible;"/>
				</clipPath>
				<g style="opacity:0.5;clip-path:url(#SVGID_00000031202263144106476690000012869085707970586811_);">
					<path style="opacity:0.7;fill:#FFFFFF;" d="M2406.609,1951.821c0.156,0,0.313-0.033,0.463-0.105
						c143.248-68.099,246.427-158.126,306.67-267.581c19.468-35.37,30.101-64.513,40.383-92.696
						c12.579-34.48,24.462-67.047,51.174-107.099c62.877-94.276,163.87-163.355,300.17-205.317c0.571-0.177,0.891-0.781,0.715-1.352
						c-0.175-0.569-0.777-0.886-1.35-0.714c-136.789,42.113-238.171,111.483-301.332,206.182
						c-26.856,40.269-38.782,72.954-51.407,107.56c-10.255,28.106-20.859,57.169-40.246,92.394
						c-60.02,109.05-162.875,198.771-305.706,266.671c-0.539,0.256-0.768,0.901-0.512,1.44
						C2405.817,1951.593,2406.205,1951.821,2406.609,1951.821z"/>
					<path style="opacity:0.7;fill:#FFFFFF;" d="M2920.419,1460.722c34.884,0,63.62-5.621,84.861-11.917
						c40.526-12.012,63.307-29.027,63.533-29.196c0.476-0.361,0.57-1.037,0.21-1.514c-0.36-0.475-1.036-0.571-1.514-0.21
						c-0.223,0.168-22.762,16.987-62.948,28.878c-37.081,10.975-97.208,19.879-173.062-0.018c-0.574-0.162-1.169,0.192-1.32,0.77
						c-0.151,0.578,0.194,1.168,0.771,1.319C2863.913,1457.481,2893.939,1460.722,2920.419,1460.722z"/>
					<path style="opacity:0.7;fill:#FFFFFF;" d="M2599.111,1826.514c0.179,0,0.36-0.045,0.527-0.138
						c0.521-0.291,0.707-0.95,0.416-1.472c-20.174-36.038-32.062-74.527-35.334-114.394c-8.646-105.349,46.863-184.941,71.13-214.27
						c0.38-0.46,0.316-1.14-0.144-1.521c-0.462-0.381-1.142-0.315-1.521,0.144c-24.436,29.533-80.33,109.685-71.617,215.824
						c3.297,40.179,15.275,78.962,35.601,115.275C2598.365,1826.315,2598.732,1826.514,2599.111,1826.514z"/>
					<path style="opacity:0.7;fill:#FFFFFF;" d="M2674.51,1915.539c42.639,0,82.283-8.408,118.663-25.231
						c109.792-50.771,151.095-162.224,151.5-163.344c0.203-0.56-0.088-1.181-0.649-1.383c-0.563-0.21-1.181,0.088-1.384,0.65
						c-0.402,1.11-41.429,111.75-150.398,162.126c-75.343,34.83-164.886,33.287-266.142-4.595c-0.554-0.216-1.183,0.073-1.391,0.632
						c-0.209,0.56,0.074,1.182,0.634,1.391C2578.356,1905.619,2628.2,1915.539,2674.51,1915.539z"/>
				</g>
			</g>
		</g>
		<g>
			<g>
				<defs>
					<path id="SVGID_00000007426494711019002070000005910634584429773240_" d="M2269.552,1928.201
						c118.172,30.451,220.515-33.508,245.131-48.891c14.367-8.979,130.076-83.68,161.487-220.436
						c28.221-122.868-36.891-185.74,17.535-299.815c24.35-51.036,60.279-86.443,63.568-89.632
						c62.34-60.461,101.896-44.638,147.716-95.059c49.037-53.962,52.332-125.569,54.478-172.226
						c2.624-57.036,5.034-109.431-31.837-146.43c-36.029-36.153-98.256-46.259-146.198-28.775
						c-73.73,26.888-58.789,99.014-152.167,166.106c-58.946,42.352-79.408,24.035-124.621,67.975
						c-49.151,47.767-41.117,85.106-82.06,142.86c-41.679,58.792-84.376,68.586-152.007,112.065
						c-64.452,41.436-202.297,130.054-229.265,252.772C2011.808,1702.974,2112.867,1887.824,2269.552,1928.201z"/>
				</defs>
				
					<linearGradient id="SVGID_00000131327529828370444780000011049387860911483305_" gradientUnits="userSpaceOnUse" x1="2636.4956" y1="772.8405" x2="2332.9346" y2="1966.3861">
					<stop  offset="0" style="stop-color:#FFC444"/>
					<stop  offset="0.9964" style="stop-color:#F36F56"/>
				</linearGradient>
				
					<use xlink:href="#SVGID_00000007426494711019002070000005910634584429773240_"  style="overflow:visible;fill:url(#SVGID_00000131327529828370444780000011049387860911483305_);"/>
				<clipPath id="SVGID_00000101781407868165521720000014954305345727165828_">
					<use xlink:href="#SVGID_00000007426494711019002070000005910634584429773240_"  style="overflow:visible;"/>
				</clipPath>
				<g style="clip-path:url(#SVGID_00000101781407868165521720000014954305345727165828_);">
					<path style="opacity:0.7;fill:#FFFFFF;" d="M2144.894,1925.691c0.153,0,0.309-0.033,0.457-0.103
						c99.866-46.686,176.587-98.798,228.03-154.885c40.069-43.686,65.69-90.887,76.152-140.292
						c9.581-45.246,6.036-87.206,2.606-127.784c-5.231-61.923-10.174-120.413,29.47-186.674
						c34.212-57.179,90.755-98.516,124.538-123.215c24.427-17.858,44.224-32.143,61.69-44.747
						c44.826-32.346,69.517-50.165,98.04-74.886c73.378-63.599,118.66-165.393,134.588-302.548c0.068-0.593-0.356-1.129-0.95-1.199
						c-0.577-0.07-1.128,0.354-1.198,0.948c-15.863,136.605-60.898,237.93-133.857,301.166
						c-28.448,24.658-53.113,42.455-97.888,74.764c-17.469,12.605-37.268,26.894-61.695,44.75
						c-33.921,24.8-90.686,66.3-125.123,123.856c-40.001,66.857-35.031,125.685-29.768,187.965
						c3.415,40.422,6.947,82.222-2.568,127.153c-10.38,49.023-35.827,95.882-75.63,139.281
						c-51.251,55.877-127.743,107.821-227.352,154.39c-0.541,0.252-0.774,0.895-0.521,1.435
						C2144.098,1925.461,2144.487,1925.691,2144.894,1925.691z"/>
					<path style="opacity:0.7;fill:#FFFFFF;" d="M2832.869,1125.998c34.969,0,70.224-6.866,100.694-25.96
						c19.74-12.37,32.411-26.858,39.566-36.833c7.769-10.833,10.821-18.635,10.948-18.963c0.214-0.556-0.063-1.18-0.619-1.396
						c-0.553-0.217-1.182,0.061-1.398,0.619c-0.121,0.311-12.521,31.528-49.765,54.816c-62.337,38.982-145.177,26.216-203.698,8.647
						c-0.572-0.173-1.174,0.153-1.345,0.724c-0.171,0.573,0.153,1.175,0.725,1.346
						C2758.454,1118.149,2795.498,1125.998,2832.869,1125.998z"/>
					<path style="opacity:0.7;fill:#FFFFFF;" d="M2556.7,1230.714c0.281,0,0.562-0.11,0.773-0.328
						c0.417-0.427,0.408-1.111-0.019-1.527c-25.636-24.976-47.323-72.585-5.055-157.561c25.394-51.053,62.354-91.867,62.723-92.274
						c0.403-0.44,0.37-1.123-0.071-1.527c-0.439-0.398-1.125-0.368-1.526,0.072c-0.372,0.407-37.511,41.415-63.043,92.729
						c-33.934,68.202-32.045,123.566,5.463,160.108C2556.156,1230.611,2556.429,1230.714,2556.7,1230.714z"/>
					<path style="opacity:0.7;fill:#FFFFFF;" d="M2453.357,1598.329c0.045,0,0.09-0.004,0.135-0.009
						c109.479-13.67,171.103-65.194,203.52-106.011c35.143-44.249,44.5-85.857,44.59-86.272c0.127-0.584-0.242-1.158-0.825-1.286
						c-0.582-0.121-1.159,0.245-1.286,0.825c-0.09,0.411-9.372,41.609-44.239,85.473c-32.167,40.466-93.327,91.552-202.028,105.127
						c-0.592,0.073-1.013,0.613-0.938,1.206C2452.355,1597.929,2452.82,1598.329,2453.357,1598.329z"/>
					<path style="opacity:0.7;fill:#FFFFFF;" d="M2302.403,1833.384c0.377,0,0.742-0.197,0.941-0.547
						c0.294-0.519,0.113-1.179-0.407-1.473c-53.372-30.281-90.859-75.328-111.419-133.886
						c-16.469-46.907-22.186-102.548-16.994-165.379c8.847-107.07,46.841-199.044,47.224-199.961
						c0.229-0.551-0.03-1.184-0.581-1.413c-0.551-0.23-1.184,0.029-1.414,0.58c-0.384,0.919-38.508,93.21-47.383,200.617
						c-5.217,63.135,0.54,119.076,17.11,166.271c20.738,59.067,58.552,104.504,112.391,135.05
						C2302.039,1833.338,2302.222,1833.384,2302.403,1833.384z"/>
				</g>
			</g>
		</g>
		<g>
			<g>
				<defs>
					<path id="SVGID_00000076593835317808561290000018116786525867082686_" d="M1872.714,1856.767
						c-51.492-91.657,37.976-260.244,123.688-348.825c55.054-56.895,89.361-60.943,122.278-123.544
						c45.49-86.512,6.963-130.114,50.902-221.721c40.018-83.431,81.44-68.232,128.025-152.033
						c54.804-98.586,8.46-143.861,51.472-242.452c48.331-110.784,177.77-216.185,267.654-183.902
						c60.606,21.768,98.829,104.552,97.219,175.011c-2.487,108.89-98.651,124.53-131.933,255.315
						c-7.03,27.626-8.88,49.938-7.892,69.414c2.972,58.589,16.116,98.151,23.696,123.837c27.69,93.83-6.746,187.655-19.999,223.763
						c-34.812,94.848-79.337,86.026-149.188,200.895c-71.922,118.273-42.159,156.306-93.144,214.329
						C2226.552,1970.833,1937.3,1971.73,1872.714,1856.767z"/>
				</defs>
				
					<linearGradient id="SVGID_00000103959125692932373350000017977742195151321223_" gradientUnits="userSpaceOnUse" x1="2205.874" y1="774.1461" x2="2440.8718" y2="2238.9617">
					<stop  offset="0.0036" style="stop-color:#E38DDD"/>
					<stop  offset="1" style="stop-color:#9571F6"/>
				</linearGradient>
				
					<use xlink:href="#SVGID_00000076593835317808561290000018116786525867082686_"  style="overflow:visible;fill:url(#SVGID_00000103959125692932373350000017977742195151321223_);"/>
				<clipPath id="SVGID_00000057117141483484931080000003812950055223919521_">
					<use xlink:href="#SVGID_00000076593835317808561290000018116786525867082686_"  style="overflow:visible;"/>
				</clipPath>
				<g style="clip-path:url(#SVGID_00000057117141483484931080000003812950055223919521_);">
					<path style="opacity:0.7;fill:#FFFFFF;" d="M1894.615,1945.837c0.114,0,0.228-0.019,0.342-0.057
						c141.362-47.152,235.719-117.408,280.45-208.818c22.291-45.555,26.826-81.92,31.626-120.421
						c5.295-42.47,10.772-86.388,40.22-147.761c30.014-62.553,60.907-84.926,90.783-106.561
						c29.093-21.07,56.573-40.971,83.134-94.47c39.081-78.715,39.427-139.607,39.795-204.076c0.3-52.661,0.61-107.112,21.42-176.286
						c34.694-115.321,118.782-219.471,249.928-309.554c0.491-0.339,0.617-1.011,0.279-1.503c-0.337-0.494-1.01-0.613-1.502-0.28
						c-131.562,90.37-215.935,194.909-250.775,310.714c-20.9,69.473-21.211,124.084-21.511,176.896
						c-0.365,64.211-0.711,124.861-39.569,203.127c-26.325,53.022-53.595,72.771-82.467,93.679
						c-30.094,21.794-61.213,44.331-91.464,107.377c-29.601,61.691-35.099,105.786-40.417,148.429
						c-4.778,38.317-9.29,74.506-31.423,119.737c-44.467,90.871-138.401,160.758-279.193,207.719
						c-0.566,0.19-0.872,0.801-0.683,1.369C1893.741,1945.55,1894.163,1945.837,1894.615,1945.837z"/>
					<path style="opacity:0.7;fill:#FFFFFF;" d="M2481.351,888.157c0.012,0,0.024,0,0.037-0.002
						c99.564-3.271,169.285-49.727,210.242-88.123c44.367-41.594,65.489-82.988,65.697-83.401c0.268-0.532,0.054-1.182-0.479-1.451
						c-0.532-0.271-1.184-0.055-1.451,0.479c-0.206,0.411-21.192,41.518-65.304,82.852
						c-40.678,38.118-109.919,84.237-208.776,87.486c-0.596,0.019-1.064,0.518-1.045,1.115
						C2480.292,887.696,2480.771,888.157,2481.351,888.157z"/>
					<path style="opacity:0.7;fill:#FFFFFF;" d="M2391.845,1308.175c0.365,0,0.72-0.184,0.924-0.52
						c0.311-0.51,0.149-1.175-0.361-1.484c-38.704-23.564-68.48-58.763-88.5-104.62c-16.041-36.738-25.895-80.365-29.29-129.665
						c-5.784-84.023,9.434-156.332,9.588-157.053c0.125-0.584-0.246-1.158-0.83-1.284c-0.587-0.131-1.157,0.248-1.282,0.831
						c-0.156,0.724-15.431,73.285-9.635,157.603c3.407,49.557,13.318,93.433,29.458,130.409
						c20.202,46.283,50.27,81.82,89.368,105.624C2391.459,1308.124,2391.654,1308.175,2391.845,1308.175z"/>
					<path style="opacity:0.7;fill:#FFFFFF;" d="M2287.574,1535.525c43.865,0,85.796-7.292,125.263-21.831
						c47.103-17.35,90.806-45.001,129.896-82.181c66.531-63.283,97.02-133.242,97.32-133.942c0.236-0.547-0.018-1.182-0.566-1.418
						c-0.551-0.236-1.182,0.017-1.419,0.567c-0.299,0.694-30.648,70.304-96.882,133.28c-38.873,36.962-82.322,64.443-129.142,81.682
						c-58.517,21.546-122.51,27.065-190.204,16.407c-0.596-0.081-1.144,0.313-1.236,0.901c-0.093,0.589,0.309,1.142,0.899,1.236
						C2243.95,1533.761,2265.998,1535.525,2287.574,1535.525z"/>
					<path style="opacity:0.7;fill:#FFFFFF;" d="M2086.057,1846.426c0.366,0,0.723-0.186,0.926-0.521
						c0.308-0.512,0.146-1.175-0.366-1.484c-44.482-26.898-75.842-65.018-93.205-113.304
						c-13.908-38.674-18.93-83.931-14.927-134.512c6.822-86.206,37.928-158.885,38.242-159.609c0.237-0.547-0.015-1.184-0.563-1.42
						c-0.55-0.239-1.184,0.015-1.421,0.562c-0.315,0.728-31.563,73.737-38.414,160.296c-4.027,50.889,1.036,96.45,15.048,135.415
						c17.537,48.764,49.204,87.261,94.122,114.422C2085.674,1846.374,2085.866,1846.426,2086.057,1846.426z"/>
				</g>
			</g>
		</g>
		<g>
			<g>
				
					<linearGradient id="SVGID_00000140009010525467675820000007611962217872622224_" gradientUnits="userSpaceOnUse" x1="2057.3621" y1="2031.7869" x2="1174.8398" y2="1239.3191">
					<stop  offset="0.0036" style="stop-color:#F36F56"/>
					<stop  offset="1" style="stop-color:#FFC444"/>
				</linearGradient>
				<path style="fill:url(#SVGID_00000140009010525467675820000007611962217872622224_);" d="M1418.902,588.891
					c-478.588,0-880.178,390.176-880.178,871.48c0,481.307,401.591,844.513,880.178,812.371
					c460.989-30.959,822.436-419.812,822.436-869.544C2241.338,953.47,1879.891,588.891,1418.902,588.891z M1418.902,691.983
					c140.675-0.579,253.562,111.36,253.562,250.016c0,138.652-112.887,253.802-253.562,257.227
					c-142.271,3.464-258.796-108.423-258.796-249.938C1160.106,807.77,1276.631,692.567,1418.902,691.983z M1479.283,1428.788
					c0,33.019-26.998,60.755-60.381,61.956c-33.473,1.204-60.673-24.712-60.673-57.891c0-33.177,27.2-60.922,60.673-61.966
					C1452.286,1369.845,1479.283,1395.77,1479.283,1428.788z M919.08,1706.277c-148.017,6.468-269.273-105.268-269.273-249.636
					s121.255-264.244,269.273-267.718c146.323-3.433,263.719,108.43,263.719,249.82S1065.403,1699.884,919.08,1706.277z
					 M1418.902,2169.65c-142.271,8.97-258.796-98.406-258.796-239.923c0-141.517,116.524-261.23,258.796-267.321
					c140.675-6.024,253.562,101.546,253.562,240.201C1672.464,2041.262,1559.578,2160.781,1418.902,2169.65z M1899.561,1663.436
					c-136.854,5.98-248.92-101.625-248.92-240.402c0-138.776,112.065-253.905,248.92-257.116
					c135.348-3.176,243.981,104.542,243.981,240.565C2143.542,1542.506,2034.91,1657.522,1899.561,1663.436z"/>
				
					<linearGradient id="SVGID_00000131325648324720435700000016147075592179714476_" gradientUnits="userSpaceOnUse" x1="2067.8682" y1="2031.7869" x2="1185.3459" y2="1239.3191">
					<stop  offset="0" style="stop-color:#FFC444"/>
					<stop  offset="0.9964" style="stop-color:#F36F56"/>
				</linearGradient>
				<path style="fill:url(#SVGID_00000131325648324720435700000016147075592179714476_);" d="M1429.408,588.891
					c-478.587,0-880.178,390.176-880.178,871.48c0,481.307,401.592,844.513,880.178,812.371
					c460.989-30.959,822.436-419.812,822.436-869.544C2251.844,953.47,1890.397,588.891,1429.408,588.891z M1429.408,691.983
					c140.676-0.579,253.563,111.36,253.563,250.016c0,138.652-112.887,253.802-253.563,257.227
					c-142.271,3.464-258.795-108.423-258.795-249.938C1170.613,807.77,1287.137,692.567,1429.408,691.983z M1489.79,1428.788
					c0,33.019-26.998,60.755-60.382,61.956c-33.473,1.204-60.673-24.712-60.673-57.891c0-33.177,27.2-60.922,60.673-61.966
					C1462.792,1369.845,1489.79,1395.77,1489.79,1428.788z M929.586,1706.277c-148.018,6.468-269.273-105.268-269.273-249.636
					s121.255-264.244,269.273-267.718c146.323-3.433,263.719,108.43,263.719,249.82S1075.909,1699.884,929.586,1706.277z
					 M1429.408,2169.65c-142.271,8.97-258.795-98.406-258.795-239.923c0-141.517,116.524-261.23,258.795-267.321
					c140.676-6.024,253.563,101.546,253.563,240.201C1682.97,2041.262,1570.084,2160.781,1429.408,2169.65z M1910.068,1663.436
					c-136.855,5.98-248.92-101.625-248.92-240.402c0-138.776,112.065-253.905,248.92-257.116
					c135.348-3.176,243.98,104.542,243.98,240.565C2154.048,1542.506,2045.416,1657.522,1910.068,1663.436z"/>
				<path style="fill:none;" d="M1513.158,1844.77c64.332,33.276,118.246,46.106,169.675,52.397
					c-2.908-135.995-114.592-240.706-253.424-234.762c-38.359,1.642-74.829,11.611-107.698,28.014
					C1380.536,1776.106,1470.027,1822.461,1513.158,1844.77z"/>
				<path style="fill:none;" d="M929.585,1188.923c-148.017,3.473-269.272,123.349-269.272,267.718s121.255,256.104,269.272,249.636
					c146.324-6.393,263.719-126.143,263.719-267.534S1075.909,1185.49,929.585,1188.923z"/>
				<path style="fill:none;" d="M1170.612,1929.726c0,141.517,116.525,248.894,258.796,239.924
					c140.676-8.869,253.563-128.389,253.563-267.044c0-1.826-0.1-3.624-0.138-5.439c-51.429-6.291-105.343-19.121-169.675-52.397
					c-43.131-22.309-132.622-68.664-191.447-154.35C1232.749,1734.813,1170.612,1826.524,1170.612,1929.726z"/>
				<path style="fill:none;" d="M1429.408,1370.886c-33.473,1.044-60.673,28.789-60.673,61.966c0,33.18,27.2,59.096,60.673,57.892
					c33.384-1.201,60.382-28.937,60.382-61.957C1489.79,1395.77,1462.792,1369.845,1429.408,1370.886z"/>
				<path style="fill:none;" d="M1910.068,1165.917c-136.855,3.211-248.92,118.34-248.92,257.116
					c0,138.777,112.065,246.382,248.92,240.402c135.348-5.914,243.98-120.93,243.98-256.953
					C2154.048,1270.458,2045.415,1162.741,1910.068,1165.917z"/>
				<path style="fill:none;" d="M1429.408,691.983c-142.271,0.585-258.796,115.787-258.796,257.304
					c0,141.515,116.525,253.402,258.796,249.938c140.676-3.425,253.563-118.575,253.563-257.227
					C1682.97,803.343,1570.084,691.404,1429.408,691.983z"/>
				
					<linearGradient id="SVGID_00000131351052984691975230000003530410869215118745_" gradientUnits="userSpaceOnUse" x1="1671.4308" y1="1708.5399" x2="1143.1189" y2="1132.1986">
					<stop  offset="0" style="stop-color:#444B8C"/>
					<stop  offset="0.9964" style="stop-color:#26264F"/>
				</linearGradient>
				<path style="fill:url(#SVGID_00000131351052984691975230000003530410869215118745_);" d="M1962.619,1412.912
					c0,291.574-235.895,540.938-533.21,557.318c-304.538,16.778-556.897-216.186-556.897-520.713
					c0-304.527,252.36-554.44,556.897-558.114C1726.724,887.816,1962.619,1121.337,1962.619,1412.912z"/>
				
					<linearGradient id="SVGID_00000174591710015250259080000008180902756658879677_" gradientUnits="userSpaceOnUse" x1="1296.1974" y1="1061.0265" x2="1725.6355" y2="2334.8616">
					<stop  offset="0.0036" style="stop-color:#26264F"/>
					<stop  offset="1" style="stop-color:#444B8C"/>
				</linearGradient>
				<path style="fill:url(#SVGID_00000174591710015250259080000008180902756658879677_);" d="M1878.41,1415.74
					c0,245.527-199.02,454.841-449.001,467.748c-255.067,13.17-465.68-182.387-465.68-437.034s210.613-464.349,465.68-468.309
					C1679.389,974.265,1878.41,1170.213,1878.41,1415.74z"/>
			</g>
			<g>
				
					<linearGradient id="SVGID_00000039125611246641624010000010972773411828674490_" gradientUnits="userSpaceOnUse" x1="1347.5536" y1="990.194" x2="1859.3224" y2="2508.2458">
					<stop  offset="0" style="stop-color:#444B8C"/>
					<stop  offset="0.9964" style="stop-color:#26264F"/>
				</linearGradient>
				<path style="fill:url(#SVGID_00000039125611246641624010000010972773411828674490_);" d="M2041.445,1412.912
					c0,291.574-235.895,540.938-533.21,557.318c-304.537,16.778-556.897-216.186-556.897-520.713
					c0-304.527,252.36-554.44,556.897-558.114C1805.55,887.816,2041.445,1121.337,2041.445,1412.912z"/>
				
					<linearGradient id="SVGID_00000135665277000629621430000012274282071761555642_" gradientUnits="userSpaceOnUse" x1="1375.0237" y1="1061.0266" x2="1804.4617" y2="2334.8616">
					<stop  offset="0.0036" style="stop-color:#26264F"/>
					<stop  offset="1" style="stop-color:#444B8C"/>
				</linearGradient>
				<path style="fill:url(#SVGID_00000135665277000629621430000012274282071761555642_);" d="M1957.236,1415.74
					c0,245.527-199.02,454.841-449.001,467.748c-255.067,13.17-465.68-182.387-465.68-437.034s210.613-464.349,465.68-468.309
					C1758.215,974.265,1957.236,1170.213,1957.236,1415.74z"/>
				
					<linearGradient id="SVGID_00000057842661955810936210000012437618856816969856_" gradientUnits="userSpaceOnUse" x1="1232.8141" y1="743.1629" x2="2031.8986" y2="3113.4744">
					<stop  offset="0.0036" style="stop-color:#F36F56"/>
					<stop  offset="1" style="stop-color:#FFC444"/>
				</linearGradient>
				<path style="fill:url(#SVGID_00000057842661955810936210000012437618856816969856_);" d="M1494.226,588.891
					c-478.587,0-880.178,390.176-880.178,871.48c0,481.307,401.591,844.513,880.178,812.371
					c460.989-30.959,822.435-419.812,822.435-869.544C2316.661,953.47,1955.215,588.891,1494.226,588.891z M1494.226,691.983
					c140.676-0.579,253.562,111.36,253.562,250.016c0,138.652-112.886,253.802-253.562,257.227
					c-142.271,3.464-258.795-108.423-258.795-249.938C1235.431,807.77,1351.955,692.567,1494.226,691.983z M1554.607,1428.788
					c0,33.019-26.998,60.755-60.381,61.956c-33.473,1.204-60.673-24.712-60.673-57.891c0-33.177,27.2-60.922,60.673-61.966
					C1527.61,1369.845,1554.607,1395.77,1554.607,1428.788z M994.404,1706.277c-148.018,6.468-269.273-105.268-269.273-249.636
					s121.255-264.244,269.273-267.718c146.323-3.433,263.719,108.43,263.719,249.82S1140.727,1699.884,994.404,1706.277z
					 M1494.226,2169.65c-142.271,8.97-258.795-98.406-258.795-239.923c0-141.517,116.524-261.23,258.795-267.321
					c140.676-6.024,253.562,101.546,253.562,240.201C1747.788,2041.262,1634.902,2160.781,1494.226,2169.65z M1974.886,1663.436
					c-136.855,5.98-248.92-101.625-248.92-240.402c0-138.776,112.065-253.905,248.92-257.116
					c135.348-3.176,243.98,104.542,243.98,240.565C2218.866,1542.506,2110.234,1657.522,1974.886,1663.436z"/>
				
					<linearGradient id="SVGID_00000066485432194737609280000011561053860472470427_" gradientUnits="userSpaceOnUse" x1="1246.8225" y1="743.163" x2="2045.907" y2="3113.4746">
					<stop  offset="0" style="stop-color:#FFC444"/>
					<stop  offset="0.9964" style="stop-color:#F36F56"/>
				</linearGradient>
				<path style="fill:url(#SVGID_00000066485432194737609280000011561053860472470427_);" d="M1508.235,588.891
					c-478.587,0-880.178,390.176-880.178,871.48c0,481.307,401.592,844.513,880.178,812.371
					c460.989-30.959,822.435-419.812,822.435-869.544C2330.67,953.47,1969.224,588.891,1508.235,588.891z M1508.235,691.983
					c140.675-0.579,253.561,111.36,253.561,250.016c0,138.652-112.886,253.802-253.561,257.227
					c-142.271,3.464-258.796-108.423-258.796-249.938C1249.439,807.77,1365.963,692.567,1508.235,691.983z M1568.616,1428.788
					c0,33.019-26.998,60.755-60.381,61.956c-33.473,1.204-60.674-24.712-60.674-57.891c0-33.177,27.201-60.922,60.674-61.966
					C1541.618,1369.845,1568.616,1395.77,1568.616,1428.788z M1008.412,1706.277c-148.017,6.468-269.273-105.268-269.273-249.636
					s121.255-264.244,269.273-267.718c146.323-3.433,263.719,108.43,263.719,249.82S1154.735,1699.884,1008.412,1706.277z
					 M1508.235,2169.65c-142.271,8.97-258.796-98.406-258.796-239.923c0-141.517,116.524-261.23,258.796-267.321
					c140.675-6.024,253.561,101.546,253.561,240.201C1761.796,2041.262,1648.91,2160.781,1508.235,2169.65z M1988.894,1663.436
					c-136.854,5.98-248.92-101.625-248.92-240.402c0-138.776,112.066-253.905,248.92-257.116
					c135.348-3.176,243.981,104.542,243.981,240.565C2232.874,1542.506,2124.242,1657.522,1988.894,1663.436z"/>
				<path style="fill:none;" d="M1591.983,1844.77c64.332,33.276,118.248,46.106,169.675,52.397
					c-2.908-135.995-114.591-240.706-253.423-234.762c-38.36,1.642-74.829,11.611-107.698,28.014
					C1459.361,1776.106,1548.854,1822.461,1591.983,1844.77z"/>
				<path style="fill:none;" d="M1008.412,1188.923c-148.017,3.473-269.273,123.349-269.273,267.718
					s121.255,256.104,269.273,249.636c146.323-6.393,263.719-126.143,263.719-267.534S1154.735,1185.49,1008.412,1188.923z"/>
				<path style="fill:none;" d="M1249.439,1929.726c0,141.517,116.524,248.894,258.796,239.924
					c140.675-8.869,253.561-128.389,253.561-267.044c0-1.826-0.099-3.624-0.138-5.439c-51.427-6.291-105.343-19.121-169.675-52.397
					c-43.13-22.309-132.622-68.664-191.446-154.35C1311.575,1734.813,1249.439,1826.524,1249.439,1929.726z"/>
				<path style="fill:none;" d="M1508.235,1370.886c-33.473,1.044-60.674,28.789-60.674,61.966c0,33.18,27.2,59.096,60.674,57.892
					c33.383-1.201,60.381-28.937,60.381-61.957C1568.616,1395.77,1541.618,1369.845,1508.235,1370.886z"/>
				<path style="fill:none;" d="M1988.894,1165.917c-136.854,3.211-248.92,118.34-248.92,257.116
					c0,138.777,112.066,246.382,248.92,240.402c135.348-5.914,243.981-120.93,243.981-256.953
					C2232.874,1270.458,2124.242,1162.741,1988.894,1165.917z"/>
				<path style="fill:none;" d="M1508.235,691.983c-142.271,0.585-258.796,115.787-258.796,257.304
					c0,141.515,116.524,253.402,258.796,249.938c140.675-3.425,253.561-118.575,253.561-257.227
					C1761.796,803.343,1648.91,691.404,1508.235,691.983z"/>
				
					<linearGradient id="SVGID_00000134943664657829794300000006253713820203087038_" gradientUnits="userSpaceOnUse" x1="1042.3738" y1="812.0782" x2="1841.5109" y2="3182.5459">
					<stop  offset="0" style="stop-color:#FFC444"/>
					<stop  offset="0.9964" style="stop-color:#F36F56"/>
				</linearGradient>
				<path style="opacity:0.3;fill:url(#SVGID_00000134943664657829794300000006253713820203087038_);" d="M1761.658,1897.167
					c0.039,1.815,0.138,3.613,0.138,5.439c0,138.656-112.886,258.175-253.561,267.044c-142.271,8.97-258.796-98.407-258.796-239.924
					c0-103.203,62.137-194.914,151.098-239.307c-15.059-21.937-28.128-46.393-37.829-73.703
					c-50.56-142.324,45.885-199.902,9.37-337.392c-49.384-185.95-253.493-184.295-330.885-359.821
					c-19.626-44.511-32.185-103.182-22.296-180.84c-234.565,157.437-390.841,422.924-390.841,721.707
					c0,481.307,401.592,844.513,880.178,812.371c241.966-16.25,456.094-130.834,604.702-299.639
					c-50.198-26.997-97.304-43.068-139.339-52.735C1894.928,1902.277,1830.505,1905.588,1761.658,1897.167z M1008.412,1706.277
					c-148.017,6.468-269.273-105.268-269.273-249.636s121.255-264.244,269.273-267.718c146.323-3.433,263.719,108.43,263.719,249.82
					S1154.735,1699.884,1008.412,1706.277z"/>
			</g>
		</g>
		<g>
			
				<linearGradient id="SVGID_00000125587524939856412720000005836957025049462404_" gradientUnits="userSpaceOnUse" x1="1018.0916" y1="2357.8376" x2="1376.1454" y2="2320.4292">
				<stop  offset="0.0036" style="stop-color:#26264F"/>
				<stop  offset="1" style="stop-color:#444B8C"/>
			</linearGradient>
			<path style="fill:url(#SVGID_00000125587524939856412720000005836957025049462404_);" d="M867.217,3065.504
				c-42.899,2.389-77.966-26.193-77.966-63.725V1649.057c0-37.531,35.067-66.854,77.966-65.37l2024.931,70.035
				c32.808,1.135,59.389,28.586,59.389,61.196v1175.374c0,32.611-26.581,60.623-59.389,62.45L867.217,3065.504z"/>
			<g>
				<g>
					
						<linearGradient id="SVGID_00000029766104463346918780000008096150343103383963_" gradientUnits="userSpaceOnUse" x1="2289.6589" y1="1694.407" x2="2858.8037" y2="882.1061">
						<stop  offset="0" style="stop-color:#444B8C"/>
						<stop  offset="0.9964" style="stop-color:#26264F"/>
					</linearGradient>
					<path style="fill:url(#SVGID_00000029766104463346918780000008096150343103383963_);" d="M883.249,3065.504
						c-42.899,2.389-77.966-26.193-77.966-63.725V1649.057c0-37.531,35.068-66.854,77.966-65.37l2024.931,70.035
						c32.808,1.135,59.389,28.586,59.389,61.196v1175.374c0,32.611-26.581,60.623-59.389,62.45L883.249,3065.504z"/>
					
						<linearGradient id="SVGID_00000124871784936504182530000014436878301455773361_" gradientUnits="userSpaceOnUse" x1="2040.5447" y1="1795.4565" x2="1335.1266" y2="4035.9609">
						<stop  offset="0" style="stop-color:#444B8C"/>
						<stop  offset="0.9964" style="stop-color:#26264F"/>
					</linearGradient>
					<path style="fill:url(#SVGID_00000124871784936504182530000014436878301455773361_);" d="M2908.181,1681.368L883.25,1615.223
						c-22.939-0.749-41.581,14.895-41.581,34.943V2702.61v297.292c0,20.049,18.642,35.299,41.581,34.065l2024.931-108.871
						c17.582-0.945,31.804-15.89,31.804-33.382v-268.614v-909.022C2939.985,1696.587,2925.763,1681.943,2908.181,1681.368z"/>
					
						<linearGradient id="SVGID_00000161592562989563393790000011017061733308971392_" gradientUnits="userSpaceOnUse" x1="2386.9351" y1="1414.6235" x2="702.3203" y2="4204.2021">
						<stop  offset="0" style="stop-color:#AA80F9"/>
						<stop  offset="0.9964" style="stop-color:#6165D7"/>
					</linearGradient>
					<path style="fill:url(#SVGID_00000161592562989563393790000011017061733308971392_);" d="M883.249,2918.961
						c-8.932,0.418-16.204-5.59-16.204-13.389V1650.938c0-7.799,7.273-13.919,16.204-13.639l2024.931,63.421
						c6.857,0.215,12.431,5.944,12.431,12.768v1097.828c0,6.824-5.574,12.639-12.431,12.96L883.249,2918.961z"/>
				</g>
				<g>
					<polygon style="opacity:0.68;fill:#FFFFFF;" points="2839.221,2756.629 972.072,2834.783 972.072,1824.808 2839.221,1862.161 
											"/>
					
						<linearGradient id="SVGID_00000154416829803566275220000010450982313348720822_" gradientUnits="userSpaceOnUse" x1="1904.2299" y1="1779.5564" x2="1864.174" y2="2111.1282">
						<stop  offset="0" style="stop-color:#444B8C"/>
						<stop  offset="0.9964" style="stop-color:#26264F"/>
					</linearGradient>
					<polygon style="fill:url(#SVGID_00000154416829803566275220000010450982313348720822_);" points="2839.221,1831.605 
						972.072,1790.305 972.072,1704.05 2839.221,1755.214 					"/>
					<g>
						
							<linearGradient id="SVGID_00000088837667040371993740000009612693915100097972_" gradientUnits="userSpaceOnUse" x1="2773.3374" y1="1607.5217" x2="2693.3452" y2="1776.9174">
							<stop  offset="0" style="stop-color:#FF9085"/>
							<stop  offset="1" style="stop-color:#FB6FBB"/>
						</linearGradient>
						<path style="fill:url(#SVGID_00000088837667040371993740000009612693915100097972_);" d="M2697.41,1789.898
							c0,5.454-4.506,9.767-10.07,9.633c-5.567-0.134-10.083-4.67-10.083-10.132c0-5.462,4.516-9.775,10.083-9.634
							C2692.903,1779.907,2697.41,1784.444,2697.41,1789.898z"/>
						
							<linearGradient id="SVGID_00000174597696013683040780000016339147200748902065_" gradientUnits="userSpaceOnUse" x1="2807.0801" y1="1624.7207" x2="2727.354" y2="1793.5526">
							<stop  offset="0" style="stop-color:#FF9085"/>
							<stop  offset="1" style="stop-color:#FB6FBB"/>
						</linearGradient>
						<path style="fill:url(#SVGID_00000174597696013683040780000016339147200748902065_);" d="M2738.733,1790.921
							c0,5.44-4.481,9.741-10.013,9.607c-5.536-0.133-10.026-4.657-10.026-10.103c0-5.447,4.49-9.748,10.026-9.607
							C2734.252,1780.959,2738.733,1785.482,2738.733,1790.921z"/>
						
							<linearGradient id="SVGID_00000146471283423656867230000013770707256782226849_" gradientUnits="userSpaceOnUse" x1="2840.6399" y1="1641.8052" x2="2761.1775" y2="1810.0787">
							<stop  offset="0" style="stop-color:#FF9085"/>
							<stop  offset="1" style="stop-color:#FB6FBB"/>
						</linearGradient>
						<path style="fill:url(#SVGID_00000146471283423656867230000013770707256782226849_);" d="M2779.823,1791.939
							c0,5.424-4.456,9.713-9.956,9.58c-5.504-0.132-9.969-4.643-9.969-10.074c0-5.431,4.466-9.721,9.969-9.58
							C2775.367,1782.005,2779.823,1786.515,2779.823,1791.939z"/>
					</g>
					<g>
						
							<linearGradient id="SVGID_00000028298041043162324960000000089288008470977975_" gradientUnits="userSpaceOnUse" x1="2035.5266" y1="2519.2681" x2="1448.1901" y2="3438.4485">
							<stop  offset="0" style="stop-color:#444B8C"/>
							<stop  offset="0.9964" style="stop-color:#26264F"/>
						</linearGradient>
						<polygon style="fill:url(#SVGID_00000028298041043162324960000000089288008470977975_);" points="2839.221,2757.137 
							973.628,2839.362 973.628,2685.488 2839.221,2620.808 						"/>
						<g>
							<path style="opacity:0.68;fill:#FFFFFF;" d="M2138.701,2255.858c0,88.472-78.243,161.726-175.878,163.639
								c-98.891,1.938-179.998-69.873-179.998-160.416c0-90.544,81.106-163.823,179.998-163.676
								C2060.458,2095.55,2138.701,2167.387,2138.701,2255.858z"/>
							
								<linearGradient id="SVGID_00000044895597279361188610000004620516890115539110_" gradientUnits="userSpaceOnUse" x1="1892.7651" y1="2258.0852" x2="2097.5625" y2="2258.0852">
								<stop  offset="0" style="stop-color:#FF9085"/>
								<stop  offset="1" style="stop-color:#FB6FBB"/>
							</linearGradient>
							<polygon style="fill:url(#SVGID_00000044895597279361188610000004620516890115539110_);" points="1892.765,2352.176 
								1892.765,2163.994 2097.563,2256.231 							"/>
						</g>
						<polygon style="opacity:0.68;fill:#FFFFFF;" points="2804.769,2704.094 1017.297,2776.165 1017.297,2751.431 
							2804.769,2682.069 						"/>
						
							<linearGradient id="SVGID_00000105419036196636330170000013729207539640737176_" gradientUnits="userSpaceOnUse" x1="1264.6018" y1="2497.8606" x2="1257.0865" y2="3234.3894">
							<stop  offset="0" style="stop-color:#FF9085"/>
							<stop  offset="1" style="stop-color:#FB6FBB"/>
						</linearGradient>
						<polygon style="fill:url(#SVGID_00000105419036196636330170000013729207539640737176_);" points="1506.681,2756.433 
							1017.297,2776.165 1017.297,2751.431 1506.681,2732.44 						"/>
						<path style="fill:#FFFFFF;" d="M1521.988,2743.832c0,19.857-18.201,36.715-40.711,37.656
							c-22.574,0.945-40.921-14.468-40.921-34.427s18.347-36.823,40.921-37.665
							C1503.787,2708.557,1521.988,2723.975,1521.988,2743.832z"/>
					</g>
				</g>
			</g>
		</g>
		<g>
			
				<linearGradient id="SVGID_00000044891935008593689230000001589679543399961790_" gradientUnits="userSpaceOnUse" x1="2393.6079" y1="1240.8223" x2="2983.4521" y2="1753.0549">
				<stop  offset="0" style="stop-color:#444B8C"/>
				<stop  offset="0.9964" style="stop-color:#26264F"/>
			</linearGradient>
			<path style="fill:url(#SVGID_00000044891935008593689230000001589679543399961790_);" d="M2767.582,1360.832
				c0,74.098-73.579,156.975-169.854,186.819c-102.956,31.915-191.814-8.375-191.814-92.053
				c0-83.678,88.858-170.534,191.814-192.573C2694.003,1242.416,2767.582,1286.734,2767.582,1360.832z"/>
			
				<linearGradient id="SVGID_00000088105417539869509830000012450798646241777796_" gradientUnits="userSpaceOnUse" x1="2647.1682" y1="948.8439" x2="3237.0129" y2="1461.0768">
				<stop  offset="0" style="stop-color:#444B8C"/>
				<stop  offset="0.9964" style="stop-color:#26264F"/>
			</linearGradient>
			<polygon style="fill:url(#SVGID_00000088105417539869509830000012450798646241777796_);" points="2767.582,1360.832 
				2723.739,1372.32 2723.739,697.508 2767.582,696.433 			"/>
			
				<linearGradient id="SVGID_00000009567767887453033640000007042754736221173420_" gradientUnits="userSpaceOnUse" x1="2815.2546" y1="755.2898" x2="3405.0981" y2="1267.5217">
				<stop  offset="0" style="stop-color:#444B8C"/>
				<stop  offset="0.9964" style="stop-color:#26264F"/>
			</linearGradient>
			<path style="fill:url(#SVGID_00000009567767887453033640000007042754736221173420_);" d="M2880.055,868.811
				c3.309,5.655-25.417-199.084-156.316-240.952v112.86C2723.739,740.719,2779.034,696.153,2880.055,868.811z"/>
		</g>
		<g>
			
				<linearGradient id="SVGID_00000026863341882761631980000013343242498297268372_" gradientUnits="userSpaceOnUse" x1="3123.6709" y1="748.585" x2="2788.0793" y2="1433.2527">
				<stop  offset="0" style="stop-color:#444B8C"/>
				<stop  offset="0.9964" style="stop-color:#26264F"/>
			</linearGradient>
			<path style="fill:url(#SVGID_00000026863341882761631980000013343242498297268372_);" d="M3042.896,1104.632
				c0,44.021-43.712,93.257-100.908,110.987c-61.165,18.96-113.954-4.975-113.954-54.688s52.79-101.312,113.954-114.405
				C2999.183,1034.282,3042.896,1060.611,3042.896,1104.632z"/>
			
				<linearGradient id="SVGID_00000165953537990546860530000014477756288391617410_" gradientUnits="userSpaceOnUse" x1="3087.0999" y1="790.841" x2="2809.6489" y2="1356.8914">
				<stop  offset="0" style="stop-color:#444B8C"/>
				<stop  offset="0.9964" style="stop-color:#26264F"/>
			</linearGradient>
			<polygon style="fill:url(#SVGID_00000165953537990546860530000014477756288391617410_);" points="3042.896,1104.632 
				3016.849,1111.456 3016.849,710.559 3042.896,709.921 			"/>
			
				<linearGradient id="SVGID_00000147917959100220979640000005874114430689722022_" gradientUnits="userSpaceOnUse" x1="3048.5586" y1="770.9177" x2="2773.6282" y2="1331.826">
				<stop  offset="0" style="stop-color:#444B8C"/>
				<stop  offset="0.9964" style="stop-color:#26264F"/>
			</linearGradient>
			<path style="fill:url(#SVGID_00000147917959100220979640000005874114430689722022_);" d="M3109.714,812.329
				c1.966,3.359-15.1-118.273-92.865-143.147v67.049C3016.849,736.231,3049.699,709.754,3109.714,812.329z"/>
		</g>
	</g>
</g>
</svg>
